<svg id="Layer_1" data-name="Layer 1" xmlns="http://www.w3.org/2000/svg" xmlns:xlink="http://www.w3.org/1999/xlink" viewBox="0 0 684.65 181.99"><defs><style>.cls-1{fill:#202bb4;}.cls-2{fill:#202b90;}.cls-3{fill:#202be3;}.cls-4{fill:#fff;}.cls-5{fill:#b4ffff;}.cls-6{fill:url(#linear-gradient);}</style><linearGradient id="linear-gradient" x1="1131.56" y1="439.85" x2="1129.38" y2="240.4" gradientUnits="userSpaceOnUse"><stop offset="0.29" stop-color="#202bb4"/><stop offset="0.35" stop-color="#2430b6"/><stop offset="0.42" stop-color="#313dbd"/><stop offset="0.49" stop-color="#4653c9"/><stop offset="0.56" stop-color="#6472da"/><stop offset="0.63" stop-color="#8a99ef"/><stop offset="0.66" stop-color="#9dadf9"/></linearGradient></defs><path class="cls-1" d="M667.88,358.35,828,310.91a7.18,7.18,0,0,1,9.14,5.81l13.63,89.87a5.85,5.85,0,0,1-5.41,6.73l-83.9,5.45,28.14,49.83L728,421.11l-58.74-1.37a7.68,7.68,0,0,1-7.5-7.68V366.51A8.51,8.51,0,0,1,667.88,358.35Z" transform="translate(-635.28 -286.61)"/><path class="cls-2" d="M850.75,406.59l-13.63-89.87a7.19,7.19,0,0,0-5.63-6L845,399.59a5.85,5.85,0,0,1-5.41,6.73l-83.9,5.45,28.14,49.83-61.55-47.49-58.74-1.37a7.83,7.83,0,0,1-1.69-.24,7.68,7.68,0,0,0,7.48,7.24L728,421.11l61.55,47.49-28.14-49.83,83.9-5.45A5.85,5.85,0,0,0,850.75,406.59Z" transform="translate(-635.28 -286.61)"/><path class="cls-3" d="M662,369.51a8.51,8.51,0,0,1,6.09-8.16l160.1-47.44a7.18,7.18,0,0,1,9.14,5.81l13.43,88.54a5.85,5.85,0,0,0,0-1.67l-13.63-89.87a7.18,7.18,0,0,0-9.14-5.81l-160.1,47.44a8.51,8.51,0,0,0-6.09,8.16v45.55a7.92,7.92,0,0,0,.21,1.76Z" transform="translate(-635.28 -286.61)"/><path class="cls-1" d="M845.3,342.64l52.55-41.16a1.8,1.8,0,0,1,2.46.23l6.35,7.72a1.48,1.48,0,0,1-.47,2.26l-58.9,33.45C845.5,346.16,843.7,343.89,845.3,342.64Z" transform="translate(-635.28 -286.61)"/><path class="cls-3" d="M845.75,343.08l52.54-41.15a1.82,1.82,0,0,1,2.15-.05l-.13-.17a1.8,1.8,0,0,0-2.46-.23L845.3,342.64a1.46,1.46,0,0,0,.11,2.45A1.41,1.41,0,0,1,845.75,343.08Z" transform="translate(-635.28 -286.61)"/><path class="cls-2" d="M906.66,309.43l-6.35-7.72a1.69,1.69,0,0,0-.32-.28l6.22,7.55a1.48,1.48,0,0,1-.47,2.26l-58.9,33.45a1.74,1.74,0,0,1-1.88-.05,1.73,1.73,0,0,0,2.33.5l58.9-33.45A1.48,1.48,0,0,0,906.66,309.43Z" transform="translate(-635.28 -286.61)"/><path class="cls-1" d="M849.72,357.48l65.6-12.32a1.82,1.82,0,0,1,2.08,1.34l2.08,9.77a1.49,1.49,0,0,1-1.46,1.8l-67.69,2.55C848.28,360.7,847.72,357.86,849.72,357.48Z" transform="translate(-635.28 -286.61)"/><path class="cls-3" d="M849.92,358.09l65.59-12.33a1.84,1.84,0,0,1,1.93.95l0-.21a1.82,1.82,0,0,0-2.08-1.34l-65.6,12.32a1.47,1.47,0,0,0-1,2.23A1.41,1.41,0,0,1,849.92,358.09Z" transform="translate(-635.28 -286.61)"/><path class="cls-2" d="M919.48,356.27l-2.08-9.77a1.66,1.66,0,0,0-.15-.39l2,9.56a1.49,1.49,0,0,1-1.46,1.8L850.14,360a1.72,1.72,0,0,1-1.64-.91,1.71,1.71,0,0,0,1.83,1.51L918,358.07A1.49,1.49,0,0,0,919.48,356.27Z" transform="translate(-635.28 -286.61)"/><path class="cls-1" d="M850.29,378l63,22a1.8,1.8,0,0,0,2.25-1l3.53-9.34a1.49,1.49,0,0,0-1.18-2L851.37,375C849.34,374.62,848.37,377.35,850.29,378Z" transform="translate(-635.28 -286.61)"/><path class="cls-3" d="M850.57,377.45l63,22a1.81,1.81,0,0,0,2-.65l-.07.2a1.8,1.8,0,0,1-2.25,1l-63-22a1.46,1.46,0,0,1-.69-2.36A1.42,1.42,0,0,0,850.57,377.45Z" transform="translate(-635.28 -286.61)"/><path class="cls-2" d="M919.08,389.69,915.55,399a1.23,1.23,0,0,1-.21.37l3.46-9.15a1.49,1.49,0,0,0-1.18-2l-66.53-12.68a1.73,1.73,0,0,0-1.77.65,1.73,1.73,0,0,1,2-1.22l66.53,12.68A1.49,1.49,0,0,1,919.08,389.69Z" transform="translate(-635.28 -286.61)"/><path class="cls-1" d="M637.22,375.14,636,381.61a45,45,0,0,0,0,16.29l1.2,6.58a9.35,9.35,0,0,0,9.3,7.68l9.57-.1a2.5,2.5,0,0,0,2.47-2.5V370a2.49,2.49,0,0,0-2.5-2.5h-9.64A9.36,9.36,0,0,0,637.22,375.14Z" transform="translate(-635.28 -286.61)"/><path class="cls-2" d="M657.56,368v39.57a2.5,2.5,0,0,1-2.47,2.5l-9.57.1a9.32,9.32,0,0,1-7.9-4.21,9.36,9.36,0,0,0,8.9,6.21l9.57-.1a2.5,2.5,0,0,0,2.47-2.5V370A2.47,2.47,0,0,0,657.56,368Z" transform="translate(-635.28 -286.61)"/><path class="cls-3" d="M638.22,405.48,637,398.9a45,45,0,0,1,0-16.29l1.19-6.47a9.36,9.36,0,0,1,9.2-7.66h9.64a2.48,2.48,0,0,1,1.19.31,2.48,2.48,0,0,0-2.19-1.31h-9.64a9.36,9.36,0,0,0-9.2,7.66L636,381.61a45,45,0,0,0,0,16.29l1.2,6.58a9.29,9.29,0,0,0,3.08,5.39A9.29,9.29,0,0,1,638.22,405.48Z" transform="translate(-635.28 -286.61)"/><circle class="cls-4" cx="176.22" cy="88.89" r="13.5"/><path class="cls-5" d="M811.5,386a13.49,13.49,0,0,1-13.41-12,12.33,12.33,0,0,0-.09,1.5,13.5,13.5,0,0,0,27,0,12.33,12.33,0,0,0-.09-1.5A13.49,13.49,0,0,1,811.5,386Z" transform="translate(-635.28 -286.61)"/><circle class="cls-4" cx="134.22" cy="88.89" r="13.5"/><path class="cls-5" d="M769.5,386a13.49,13.49,0,0,1-13.41-12,12.33,12.33,0,0,0-.09,1.5,13.5,13.5,0,0,0,27,0,12.33,12.33,0,0,0-.09-1.5A13.49,13.49,0,0,1,769.5,386Z" transform="translate(-635.28 -286.61)"/><circle class="cls-4" cx="88.22" cy="88.89" r="13.5"/><path class="cls-5" d="M723.5,386a13.49,13.49,0,0,1-13.41-12,12.33,12.33,0,0,0-.09,1.5,13.5,13.5,0,0,0,27,0,12.33,12.33,0,0,0-.09-1.5A13.49,13.49,0,0,1,723.5,386Z" transform="translate(-635.28 -286.61)"/><path class="cls-6" d="M1025.94,359.49q0,20.28-11.1,32t-31.38,11.68q-20.15,0-31.31-11.68t-11.17-32q0-20.52,11.17-32.12t31.31-11.61q20.22,0,31.35,11.68T1025.94,359.49Zm-26.29.14a52,52,0,0,0-1.21-12.19,22.61,22.61,0,0,0-3.33-7.8,12.66,12.66,0,0,0-5.13-4.29,16.73,16.73,0,0,0-6.52-1.21,17.32,17.32,0,0,0-6.23,1.07,12,12,0,0,0-5.12,4.06,22.09,22.09,0,0,0-3.52,7.84,49.84,49.84,0,0,0-1.32,12.52,48.61,48.61,0,0,0,1.25,12.2,23.09,23.09,0,0,0,3.22,7.43,12.11,12.11,0,0,0,5.13,4.18,17.26,17.26,0,0,0,6.81,1.31,16.43,16.43,0,0,0,6.26-1.31,11.62,11.62,0,0,0,5.09-4,22.79,22.79,0,0,0,3.44-7.58A50.2,50.2,0,0,0,999.65,359.63Z" transform="translate(-635.28 -286.61)"/><path class="cls-6" d="M1116,400.57h-25.63v-9.08a70,70,0,0,1-12.23,8.46,28.39,28.39,0,0,1-13.26,2.9q-12.22,0-19.08-7.73t-6.85-23.26V318.32h25.78v40.8q0,6.38.33,10.4a20.82,20.82,0,0,0,1.58,6.81,8.13,8.13,0,0,0,3.62,3.88,14.65,14.65,0,0,0,6.85,1.32,19.55,19.55,0,0,0,6.41-1.32,27.13,27.13,0,0,0,6.85-3.59v-58.3H1116Z" transform="translate(-635.28 -286.61)"/><path class="cls-6" d="M1167.08,402.19q-15.67,0-22.82-6.45t-7.14-21.09V336.19h-9.81V318.32h9.81V294.81h25.64v23.51h24.68v17.87h-24.68v29.16q0,4.32.07,7.54a15.55,15.55,0,0,0,1.17,5.79,8.1,8.1,0,0,0,3.63,4.06q2.59,1.5,7.58,1.5a30.33,30.33,0,0,0,10-2.49h2.2v18.09a71.69,71.69,0,0,1-8.86,1.72A88.43,88.43,0,0,1,1167.08,402.19Z" transform="translate(-635.28 -286.61)"/><path class="cls-6" d="M1223.55,400.57h-25.64v-114h25.64Z" transform="translate(-635.28 -286.61)"/><path class="cls-6" d="M1319.93,318.32l-41.52,112.43h-27.54l12.45-32.15-30.18-80.28h26.95l17.29,51.57,16.19-51.57Z" transform="translate(-635.28 -286.61)"/></svg>